<?xml version="1.0" standalone="no"?>
<!DOCTYPE svg PUBLIC "-//W3C//DTD SVG 20010904//EN"
 "http://www.w3.org/TR/2001/REC-SVG-20010904/DTD/svg10.dtd">
<svg version="1.0" xmlns="http://www.w3.org/2000/svg"
 width="510.000000pt" height="491.000000pt" viewBox="0 0 510.000000 491.000000"
 preserveAspectRatio="xMidYMid meet">

<g transform="translate(0.000000,491.000000) scale(0.100000,-0.100000)"
fill="#000000" stroke="none">
<path d="M1030 4452 l-135 -436 -425 -132 c-234 -72 -431 -133 -437 -135 -7
-2 134 -49 313 -104 179 -55 330 -103 335 -106 5 -3 -21 -69 -60 -147 -112
-231 -190 -495 -222 -757 -15 -128 -15 -412 0 -540 102 -835 630 -1548 1396
-1885 540 -238 1146 -262 1715 -68 147 50 386 168 515 253 495 330 846 816
991 1375 64 245 90 576 65 825 -55 546 -293 1048 -681 1435 -189 189 -387 330
-634 450 -347 169 -633 235 -1031 235 -247 0 -359 -14 -579 -69 -240 -61 -494
-172 -690 -301 -55 -36 -103 -65 -106 -65 -4 0 -49 136 -100 303 -51 166 -93
303 -94 304 -1 1 -62 -195 -136 -435z m195 -412 c29 -94 55 -173 58 -176 3 -3
82 -29 177 -59 94 -29 173 -55 176 -58 3 -3 -10 -10 -28 -15 -18 -6 -99 -31
-180 -57 l-147 -45 -41 -133 c-65 -210 -72 -229 -77 -224 -2 3 -28 82 -58 177
-29 94 -55 174 -59 177 -3 3 -83 30 -177 59 -95 30 -174 56 -177 58 -2 3 56
23 130 46 73 23 154 48 180 56 l48 15 40 132 c65 210 72 229 77 224 2 -3 28
-82 58 -177z m1164 -121 c189 -137 349 -248 356 -245 7 2 163 114 346 248 239
174 341 242 360 242 34 -1 194 -78 308 -149 181 -112 389 -299 513 -461 l47
-61 -109 -331 c-60 -182 -110 -337 -112 -345 -2 -10 119 -104 335 -262 l337
-246 0 -45 c0 -65 -27 -233 -55 -345 -48 -190 -122 -369 -218 -531 l-51 -88
-440 -2 -440 -3 -137 -420 -137 -420 -94 -22 c-228 -55 -545 -66 -778 -28
-748 123 -1366 644 -1610 1360 -67 197 -110 452 -110 657 0 171 55 461 121
641 43 117 111 259 120 250 4 -4 55 -165 114 -358 59 -192 108 -351 109 -352
1 -1 62 194 136 435 l134 437 438 135 c240 74 436 135 435 136 -1 1 -150 47
-331 103 -317 97 -344 107 -335 114 61 50 357 207 389 207 8 0 170 -113 359
-251z"/>
<path d="M2350 2919 c-212 -153 -389 -285 -393 -291 -5 -8 53 -201 141 -473
l148 -460 492 -3 c271 -1 492 0 492 3 0 3 68 213 151 467 84 256 147 463 142
467 -5 3 -183 133 -396 289 -212 155 -387 282 -389 281 -2 0 -176 -126 -388
-280z"/>
</g>
</svg>
